<svg xmlns="http://www.w3.org/2000/svg" width="24" height="16.281" viewBox="0 0 24 16.281">
    <defs>
        <style>
            .cls-1{fill:#3587e0;fill-rule:evenodd}
        </style>
    </defs>
    <path id="ic_AirConditioning_копия_14" data-name="ic_AirConditioning копия 14" class="cls-1" d="M557 208h-22a.98.98 0 0 0-1 1v8a.98.98 0 0 0 1 1h22a.98.98 0 0 0 1-1v-8a.979.979 0 0 0-1-1zm0 9h-22v-8h22v8zm-2-4h-18c-1 0-1 1 0 1h18c1 0 1-1 0-1zm-8.769 7.67a.861.861 0 0 1-.6-.609 1.127 1.127 0 0 1 .56-.648.355.355 0 0 0 .16-.494.361.361 0 0 0-.52-.153 1.58 1.58 0 0 0-1 1.295 1.68 1.68 0 0 0 1 1.334.862.862 0 0 1 .6.61.952.952 0 0 1-.6.609.329.329 0 0 0-.16.5.427.427 0 0 0 .36.19.386.386 0 0 0 .2-.037 1.584 1.584 0 0 0 1-1.3 1.536 1.536 0 0 0-1.002-1.3zM555 215h-18c-1 0-1 1 0 1h18c1 0 1-1 0-1zm-13-4h-5c-1 0-1 1 0 1h5c1 0 1-1 0-1zm13 0h-1c-1 0-1 1 0 1h1c1 0 1-1 0-1zm-4 0h-1c-1 0-1 1 0 1h1c1 0 1-1 0-1zm-.769 10.672a.864.864 0 0 1-.6-.608 1.121 1.121 0 0 1 .561-.648.357.357 0 0 0 .16-.5.363.363 0 0 0-.52-.152 1.581 1.581 0 0 0-1 1.3 1.678 1.678 0 0 0 1 1.332.867.867 0 0 1 .6.61.955.955 0 0 1-.6.61.329.329 0 0 0-.16.5.423.423 0 0 0 .36.19.384.384 0 0 0 .2-.037 1.583 1.583 0 0 0 1-1.3 1.536 1.536 0 0 0-1.003-1.302zm-8 0a.862.862 0 0 1-.6-.608 1.114 1.114 0 0 1 .56-.648.358.358 0 0 0 .161-.5.364.364 0 0 0-.521-.152 1.581 1.581 0 0 0-1 1.3 1.678 1.678 0 0 0 1 1.332.867.867 0 0 1 .6.61.955.955 0 0 1-.6.61.329.329 0 0 0-.16.5.422.422 0 0 0 .36.19.387.387 0 0 0 .2-.037 1.583 1.583 0 0 0 1-1.3 1.536 1.536 0 0 0-1.002-1.302z" transform="translate(-534 -208)"/>
</svg>
