<svg xmlns="http://www.w3.org/2000/svg" width="24" height="16.125" viewBox="0 0 24 16.125">
    <defs>
        <style>
            .cls-1{fill:#333;fill-rule:evenodd}
        </style>
    </defs>
    <path id="Shape_1_копия_82" data-name="Shape 1 копия 82" class="cls-1" d="M362.223 392.948h-.3v-5.954h-19.915v5.954h-.237a1.831 1.831 0 0 0-1.771 1.877v8.294h2.9v-2.047h18.2v2.047h2.9v-8.294a1.831 1.831 0 0 0-1.777-1.877zm-19.247-4.929h17.982v4.93h-1.039v-2.766a1.166 1.166 0 0 0-1.13-1.195h-4.673a1.165 1.165 0 0 0-1.128 1.195v2.766h-1.949v-2.735a1.165 1.165 0 0 0-1.129-1.195h-4.7a1.166 1.166 0 0 0-1.129 1.195v2.735h-1.1v-4.93zm15.975 2.164v2.765h-5v-2.765a.165.165 0 0 1 .161-.169h4.673a.166.166 0 0 1 .166.169zm-8.879.031v2.734h-5.027v-2.734a.166.166 0 0 1 .161-.17h4.7a.167.167 0 0 1 .166.17zm12.959 11.886h-.968v-2.049h-20.13v2.049h-.968v-3.168h22.066v3.168zm0-4.193h-22.066v-3.078a.832.832 0 0 1 .806-.852h20.452a.831.831 0 0 1 .807.852v3.071z" transform="translate(-340 -387)"/>
</svg>
