<svg xmlns="http://www.w3.org/2000/svg" width="24" height="17" viewBox="0 0 24 17">
    <defs>
        <style>
            .cls-1{fill-rule:evenodd}
        </style>
    </defs>
    <path id="Shape_1_копия_79" data-name="Shape 1 копия 79" class="cls-1" d="M535.408 105.541h.758v.787h-.758v-.787zm-1.515 0h.757v.787h-.757v-.787zm-.758-.787h.758v.787h-.758v-.787zm1.515 0h.758v.787h-.758v-.787zm.758 2.361v-.787h-.758v.787h-.757v-.787h-.758v.787h-.38v-.787h.38v-.786h-.38v-.788h.38v-.787h.758v.787h.757v-.787h.758v.787h.758v-.787h4.8v-.787H532v4.72h12.68v-.786h-9.272zm8.944-3.935v.787h3.94v3.933H556v-4.72h-11.648zm10.888 3.935h-6.189v-3.148h6.189v3.148zM532 99.718h.758v.787H532v-.787zm0-1.574h.758v.787H532v-.787zm0 3.147h.758v.786H532v-.786zm1.706-1.573h.758v.787h-.764v-.787zm0-3.148h.758v.787h-.764v-.787zm0 1.574h.758v.787h-.764v-.787zm0 3.147h.758v.786h-.764v-.786zm1.705-3.147h.758v.787h-.758v-.787zm0-1.574h.758v.787h-.758v-.787zm0-1.574h.758v.788h-.758V95zm0 6.3h.758v.786h-.758v-.786zm0-1.573h.758v.787h-.758v-.792zm2.789-.272l.536-.557 12.089 12.551-.537.556z" transform="translate(-532 -95)"/>
</svg>
