<svg xmlns="http://www.w3.org/2000/svg" width="25" height="25" viewBox="0 0 25 25">
    <defs>
        <style>
            .cls-1{fill:#333;fill-rule:evenodd}
        </style>
    </defs>
    <path id="Forma_1_копия_43" data-name="Forma 1 копия 43" class="cls-1" d="M365.869 77.284l-3.243-3.245-7.363-7.369-7.363-7.37-6.189-6.193a.411.411 0 0 0-.453-.09.417.417 0 0 0-.258.383v24.179a.416.416 0 0 0 .416.417h24.161a.417.417 0 0 0 .292-.712zm-24.038-.122V54.409l2.238 2.238-.589.59a.417.417 0 0 0 .589.589l.589-.589.883.884-1.178 1.179a.417.417 0 1 0 .589.59l1.178-1.179.884.884-.589.59a.417.417 0 1 0 .589.59l.589-.59.884.885-1.179 1.179a.417.417 0 0 0 .3.711.409.409 0 0 0 .294-.123l1.179-1.178.883.884-.588.59a.416.416 0 0 0 .588.589l.589-.589.884.883-1.178 1.18a.416.416 0 1 0 .589.589l1.179-1.178.883.884-.589.589a.42.42 0 0 0 0 .591.418.418 0 0 0 .589 0l.589-.591.883.885-1.182 1.178a.417.417 0 1 0 .589.59l1.177-1.18.885.885-.589.588a.417.417 0 1 0 .589.59l.589-.59.883.884-1.178 1.18a.417.417 0 1 0 .589.59l1.178-1.179.885.884-.59.589a.417.417 0 0 0 0 .59.412.412 0 0 0 .3.121.417.417 0 0 0 .3-.121l.588-.59.883.884-1.177 1.18a.416.416 0 1 0 .588.589l1.179-1.179.883.884-.589.59a.417.417 0 0 0 .3.712.414.414 0 0 0 .294-.121l.59-.591 2.238 2.24h-22.753zm4.876-11.978a.41.41 0 0 0-.454-.09.415.415 0 0 0-.257.384v7.1a.417.417 0 0 0 .416.417h7.1a.416.416 0 0 0 .294-.711zm.122 6.975v-5.675l5.671 5.676h-5.672z" transform="translate(-341 -53)"/>
</svg>
