<svg xmlns="http://www.w3.org/2000/svg" width="26" height="17" viewBox="0 0 26 17">
    <defs>
        <style>
            .cls-1{fill-rule:evenodd}
        </style>
    </defs>
    <path id="Forma_1_копия_43" data-name="Forma 1 копия 43" class="cls-1" d="M556.62 73h-2.164a.366.366 0 0 1-.378-.353v-2.6H534.1v2.6a.367.367 0 0 1-.379.353h-2.343a.365.365 0 0 1-.378-.357V56.349a.366.366 0 0 1 .375-.349h2.343a.367.367 0 0 1 .379.353v4.842a1.817 1.817 0 0 1 .982-.285h4.684a1.687 1.687 0 0 1 1.738 1.625V63a1.543 1.543 0 0 1-.3.919h12.882V60.7a.366.366 0 0 1 .378-.354h2.164a.366.366 0 0 1 .375.354v11.943a.366.366 0 0 1-.38.357zm-1.787-.706h1.409V61.055h-1.409V72.29zm-23.08 0h1.588V56.7h-1.588v15.59zm2.344-2.958h19.981v-1.251H534.1v1.247zm0-1.953h19.981v-2.757H534.1v2.753zm.982-3.459h4.684a.952.952 0 0 0 .982-.924v-.468a.953.953 0 0 0-.982-.919h-4.684a.953.953 0 0 0-.982.919V63a.952.952 0 0 0 .982.92z" transform="translate(-531 -56)"/>
</svg>
