<svg xmlns="http://www.w3.org/2000/svg" width="24" height="24" viewBox="0 0 24 24">
    <defs>
        <style>
            .cls-1{fill:#42be56;fill-rule:evenodd}
        </style>
    </defs>
    <path id="Forma_1_копия_68" data-name="Forma 1 копия 68" class="cls-1" d="M76.3 335.584a.749.749 0 0 0-1.024.275l-4.8 8.305-2.676-2.473a.75.75 0 1 0-1.094 1.025l3.428 3.162a.748.748 0 0 0 1.06.034c.092-.085 5.385-9.3 5.385-9.3a.752.752 0 0 0-.279-1.028zm-4.52-6.8a12 12 0 1 0 12 12 12 12 0 0 0-12.001-11.999zm0 23.21a11.213 11.213 0 1 1 11.212-11.212A11.213 11.213 0 0 1 71.779 352z" transform="translate(-59.781 -328.781)"/>
</svg>
