<svg id="Capa_1" xmlns="http://www.w3.org/2000/svg" viewBox="0 0 20 15">
    <style>
        .st0{fill:#fff}
    </style>
    <path class="st0" d="M329.9 14.6h-13.8c-1.1 0-2.1-.9-2.1-2.1V4.1c0-1.1 1-2.1 2.1-2.1h2.8l.2-.8c.1-.5.5-.8 1-.8h5.6c.5 0 .9.3 1 .8l.3.8h2.8c1.1 0 2.1.9 2.1 2.1v8.4c0 1.1-.9 2.1-2 2.1zM316.1 2.7c-.8 0-1.4.6-1.4 1.4v8.4c0 .8.6 1.4 1.4 1.4h13.8c.8 0 1.4-.6 1.4-1.4V4.1c0-.8-.6-1.4-1.4-1.4h-3.3l-.4-1.3c0-.2-.2-.3-.3-.3h-5.6c-.2 0-.3.1-.3.3l-.4 1.3h-3.5zm6.9 9.8c-2.4 0-4.4-2-4.4-4.4 0-2.4 2-4.4 4.4-4.4 2.4 0 4.4 2 4.4 4.4 0 2.4-2 4.4-4.4 4.4zm0-8.1c-2 0-3.7 1.7-3.7 3.7s1.7 3.7 3.7 3.7 3.7-1.7 3.7-3.7-1.7-3.7-3.7-3.7zm6.4-.4c-.4 0-.6.3-.6.6 0 .4.3.6.6.6.4 0 .6-.3.6-.6s-.2-.6-.6-.6z" transform="matrix(-1 0 0 1 333.668 0)"/>
</svg>
