<svg xmlns="http://www.w3.org/2000/svg" width="24" height="19" viewBox="0 0 24 19">
    <defs>
        <style>
            .cls-1{fill:#3587e0;fill-rule:evenodd}
        </style>
    </defs>
    <path id="ic_Safe_копия_15" data-name="ic_Safe копия 15" class="cls-1" d="M369 222v-17a.979.979 0 0 0-1-1h-22a.979.979 0 0 0-1 1v17a.98.98 0 0 0 1 1h22a.979.979 0 0 0 1-1zm-23 0v-17h22v17h-22zm1-2v-13a.98.98 0 0 1 1-1h17a.98.98 0 0 1 1 1v13a.98.98 0 0 1-1 1h-17a.98.98 0 0 1-1-1zm18.031 0v-13H348v13h17.03zM349 210h1v1h-1v-1zm2 0h1v1h-1v-1zm-2 2h1v1h-1v-1zm4 0h1v1h-1v-1zm-4 2h1v1h-1v-1zm2 0h1v1h-1v-1zm0 2h1v1h-1v-1zm9.5-6a3.5 3.5 0 1 1-3.5 3.5 3.5 3.5 0 0 1 3.5-3.5zm0 1a2.5 2.5 0 1 1-2.5 2.5 2.5 2.5 0 0 1 2.5-2.5zm0 1a1.5 1.5 0 1 1-1.5 1.5 1.5 1.5 0 0 1 1.5-1.5zm0 1a.5.5 0 1 1-.5.5.5.5 0 0 1 .5-.5zm-1 1h-4a.5.5 0 1 1 0-1h4a.5.5 0 1 1 0 1zm-6.5-4h1v1h-1v-1zm-2 2h1v1h-1v-1zm2 2h1v1h-1v-1zm11-5h3v1h-3v-1zm0 8h3v1h-3v-1z" transform="translate(-345 -204)"/>
</svg>
