<svg xmlns="http://www.w3.org/2000/svg" width="23.219" height="23.969" viewBox="0 0 23.219 23.969">
    <defs>
        <style>
            .cls-1{fill:#fff;fill-rule:evenodd}
        </style>
    </defs>
    <path id="Shape_1_копия_57" data-name="Shape 1 копия 57" class="cls-1" d="M81.841 427.489a.38.38 0 0 0-.377.385 1.229 1.229 0 1 1-2.456 0 .376.376 0 1 0-.752 0 1.229 1.229 0 1 1-2.457 0 .376.376 0 1 0-.752 0 1.229 1.229 0 1 1-2.457 0 .376.376 0 1 0-.753 0 1.229 1.229 0 1 1-2.457 0 .376.376 0 1 0-.752 0 1.229 1.229 0 1 1-2.457 0 .376.376 0 1 0-.753 0 1.229 1.229 0 1 1-2.457 0 .376.376 0 1 0-.752 0 1.229 1.229 0 1 1-2.456 0 .377.377 0 1 0-.753 0 2.007 2.007 0 0 0 1.98 2.026 1.964 1.964 0 0 0 1.6-.84 1.953 1.953 0 0 0 3.21 0 1.953 1.953 0 0 0 3.21 0 1.953 1.953 0 0 0 3.209 0 1.953 1.953 0 0 0 3.209 0 1.952 1.952 0 0 0 3.209 0 1.965 1.965 0 0 0 1.605.84 2.006 2.006 0 0 0 1.98-2.026.379.379 0 0 0-.371-.385zm0 3.079a.381.381 0 0 0-.377.385 1.229 1.229 0 1 1-2.456 0 .376.376 0 1 0-.752 0 1.229 1.229 0 1 1-2.457 0 .376.376 0 1 0-.752 0 1.229 1.229 0 1 1-2.457 0 .376.376 0 1 0-.753 0 1.229 1.229 0 1 1-2.457 0 .376.376 0 1 0-.752 0 1.229 1.229 0 1 1-2.457 0 .376.376 0 1 0-.753 0 1.229 1.229 0 1 1-2.457 0 .376.376 0 1 0-.752 0 1.229 1.229 0 1 1-2.456 0 .377.377 0 1 0-.753 0 2.007 2.007 0 0 0 1.982 2.027 1.961 1.961 0 0 0 1.6-.84 1.953 1.953 0 0 0 3.21 0 1.953 1.953 0 0 0 3.21 0 1.953 1.953 0 0 0 3.21 0 1.952 1.952 0 0 0 3.209 0 1.952 1.952 0 0 0 3.209 0 1.967 1.967 0 0 0 1.605.84 2.006 2.006 0 0 0 1.981-2.027.38.38 0 0 0-.375-.385zm-7.436-12.933a.381.381 0 0 0-.376.385v8.652a.376.376 0 1 0 .751 0v-8.652a.38.38 0 0 0-.374-.385zm1.819-8.622a4.2 4.2 0 0 0-4.174 4.079v2.035h-7.2v-2.035a1.438 1.438 0 0 1 1.349-1.667 1.677 1.677 0 0 1 1.661 1.667 1.179 1.179 0 1 0 2.357 0 4.064 4.064 0 0 0-4.017-4.079 4.145 4.145 0 0 0-4.112 4.079v9.033a.376.376 0 1 0 .752 0v-9.033a3.384 3.384 0 0 1 3.36-3.309 3.3 3.3 0 0 1 3.265 3.309.426.426 0 1 1-.852 0 2.44 2.44 0 0 0-2.413-2.438 2.194 2.194 0 0 0-2.1 2.438v14.986a.376.376 0 1 0 .751 0v-4.2h7.2v2.761a.376.376 0 1 0 .751 0v-13.55a3.44 3.44 0 0 1 3.422-3.309 3.276 3.276 0 0 1 3.234 3.309.426.426 0 1 1-.852 0 2.414 2.414 0 0 0-2.382-2.438 2.24 2.24 0 0 0-2.163 2.438v3.285a.376.376 0 1 0 .752 0v-3.285a1.481 1.481 0 0 1 1.411-1.667 1.651 1.651 0 0 1 1.63 1.667 1.179 1.179 0 1 0 2.357 0 4.038 4.038 0 0 0-3.987-4.076zm-4.174 14.1h-7.2v-3.268h7.2v3.268zm0-4.038h-7.2V415.9h7.2v3.176zm-9.591 4.311a.38.38 0 0 0-.376.384v2.875a.376.376 0 1 0 .752 0v-2.875a.38.38 0 0 0-.376-.387z" transform="translate(-59 -409)"/>
</svg>
