<svg xmlns="http://www.w3.org/2000/svg" width="19.969" height="24.031" viewBox="0 0 19.969 24.031">
    <defs>
        <style>
            .cls-1{fill:#3587e0;fill-rule:evenodd}
        </style>
    </defs>
    <path id="ic_Shower_копия_14" data-name="ic_Shower копия 14" class="cls-1" d="M547.508 188.028a.446.446 0 0 1-.5-.328v-11.737a.553.553 0 0 1 1.01 0V187.7a.446.446 0 0 1-.51.328zm-12 0C535 188 535 187 535 187v-16.02s0-6.98 6-6.98 6.994 4.242 7 5a5.512 5.512 0 0 1 4.98 5.6.322.322 0 0 1-.316.327h-10.377a.321.321 0 0 1-.316-.327A5.348 5.348 0 0 1 547 169c-.162-1.02-1-4.03-6-4.03s-5 6.03-5 6.03v16s.016 1.059-.494 1.028zm7.515-14.039h9a4.639 4.639 0 0 0-4.547-4.1 4.548 4.548 0 0 0-4.455 4.1zm11.528 13.8a.445.445 0 0 1-.572-.187l-3.037-11.5a.554.554 0 0 1 .978-.258l3.036 11.5a.445.445 0 0 1-.407.441zm-3.226.134a.448.448 0 0 1-.55-.244l-1.84-11.752a.555.555 0 0 1 1-.156l1.841 11.75a.449.449 0 0 1-.453.398zm-10.908-.134a.447.447 0 0 0 .573-.187l3.036-11.5a.554.554 0 0 0-.978-.258l-3.036 11.5a.445.445 0 0 0 .403.441zm3.225.134a.448.448 0 0 0 .55-.244l1.841-11.752a.556.556 0 0 0-1-.156l-1.84 11.75a.448.448 0 0 0 .447.398z" transform="translate(-535 -164)"/>
</svg>
