<svg xmlns="http://www.w3.org/2000/svg" width="23.969" height="17.813" viewBox="0 0 23.969 17.813">
    <defs>
        <style>
            .cls-1{fill:#42be56;fill-rule:evenodd}
        </style>
    </defs>
    <path id="ic_Wi-Fi_копия_25" data-name="ic_Wi-Fi копия 25" class="cls-1" d="M363.962 339.876a16.871 16.871 0 0 0-23.742 0 .432.432 0 0 0 0 .614.441.441 0 0 0 .619 0 16 16 0 0 1 22.5 0 .439.439 0 0 0 .618 0 .43.43 0 0 0 .005-.614zM342.79 342.8a.435.435 0 0 0 .307.742.436.436 0 0 0 .31-.127 12.344 12.344 0 0 1 17.367 0 .439.439 0 0 0 .619 0 .435.435 0 0 0 0-.615 13.227 13.227 0 0 0-18.603 0zm9.3.161a9.484 9.484 0 0 0-6.733 2.769.432.432 0 0 0 0 .614.438.438 0 0 0 .618 0 8.694 8.694 0 0 1 12.23 0 .435.435 0 0 0 .617-.614 9.48 9.48 0 0 0-6.731-2.766zm-.125 4.15a2.848 2.848 0 1 0 2.864 2.849 2.86 2.86 0 0 0-2.863-2.846zm0 4.826a1.979 1.979 0 1 1 1.989-1.977 1.985 1.985 0 0 1-1.988 1.98z" transform="translate(-340.125 -335)"/>
</svg>
